# xmcd
#
# Track frame offsets:
#	150
#	742
#	14984
#	27935
#	42706
#	58344
#	75273
#	91113
#	106976
#	126219
#	143462
#	160792
#	176377
#	193526
#
# Disc length: 2843 seconds
# Revision: 0
# Processed by: cddbd v1.5.2PL0 Copyright (c) Steve Scherf et al.
# Submitted via: dBpowerAMP V12.0
#
DISCID=ae0b190e
DTITLE=Various Artist - La Mécanique
DYEAR=2008
DGENRE=Français
TTITLE0=Kodiak - Intro
TTITLE1=Kodiak - Réverbères
TTITLE2=Kodiak - Angle Mort
TTITLE3=Kodiak - Fiasco
TTITLE4=Kodiak - Bombay
TTITLE5=Kodiak - Zombies
TTITLE6=Kodiak - Calamité
TTITLE7=Kodiak - S.V.P
TTITLE8=Kodiak Featuring Doriane Fabreg - Derrière Un Sourire
TTITLE9=Kodiak - L'Exil
TTITLE10=Kodiak - Tonnes De Victimes
TTITLE11=Kodiak and Valerie Daure - Pour Ça
TTITLE12=Kodiak - Mécanisme
TTITLE13=Kodiak - L'Horreur Est Humaine
EXTD=
EXTT0=
EXTT1=
EXTT2=
EXTT3=
EXTT4=
EXTT5=
EXTT6=
EXTT7=
EXTT8=
EXTT9=
EXTT10=
EXTT11=
EXTT12=
EXTT13=
PLAYORDER=
